<svg xmlns="http://www.w3.org/2000/svg" xmlns:xlink="http://www.w3.org/1999/xlink" viewBox="0 0 128 128"><g transform="translate(1.822 2.139)" id="ss10530277877_1"><g><defs><path d="M 1.105 62.203 C 1.105 28.459 28.477 1.104 62.242 1.104 C 96.007 1.104 123.379 28.459 123.379 62.203 C 123.379 95.946 96.007 123.301 62.242 123.301 C 28.477 123.301 1.105 95.946 1.105 62.203 Z" id="a1664z"></path><filter id="a1666z" x="0.0%" y="-4.2%" width="99.9%" height="108.3%" filterUnits="objectBoundingBox"><feGaussianBlur stdDeviation="0" in="SourceAlpha" result="a1668z"></feGaussianBlur><feOffset dx="0" dy="-5.12" in="a1668z" result="a1669z"></feOffset><feComposite in="a1669z" in2="SourceAlpha" operator="arithmetic" k2="-1" k3="1" result="a1670z"></feComposite><feColorMatrix color-interpolation-filters="sRGB" values="0 0 0 0 0   0 0 0 0 0.00392156862745098   0 0 0 0 0.01568627450980392  0 0 0 1 0" type="matrix" in="a1670z" result="a1671z"></feColorMatrix></filter></defs><use xlink:href="#a1664z" fill="rgb(237, 201, 19)" clip-path="url(#a1665z)"></use><use fill="black" fill-opacity="1" filter="url(#a1666z)" xlink:href="#a1664z"></use></g><g><defs><path d="M 0 62.203 C 0 27.849 27.867 0 62.242 0 C 96.617 0 124.483 27.849 124.483 62.203 C 124.483 96.556 96.617 124.405 62.242 124.405 C 27.867 124.405 0 96.556 0 62.203 Z" id="a1672z"></path><filter id="a1674z" x="0.0%" y="-4.1%" width="99.0%" height="107.2%" filterUnits="objectBoundingBox"><feGaussianBlur stdDeviation="0" in="SourceAlpha" result="a1676z"></feGaussianBlur><feOffset dx="0" dy="-5.12" in="a1676z" result="a1677z"></feOffset><feComposite in="a1677z" in2="SourceAlpha" operator="arithmetic" k2="-1" k3="1" result="a1678z"></feComposite><feColorMatrix color-interpolation-filters="sRGB" values="0 0 0 0 0   0 0 0 0 0.00392156862745098   0 0 0 0 0.01568627450980392  0 0 0 1 0" type="matrix" in="a1678z" result="a1679z"></feColorMatrix></filter></defs><use xlink:href="#a1672z" fill="transparent" stroke-opacity="0"></use><use fill="black" fill-opacity="1" filter="url(#a1674z)" xlink:href="#a1672z"></use><use xlink:href="#a1672z" clip-path="url(#a1673z)" fill="transparent" stroke-width="2.49" stroke="rgb(0, 1, 4)" stroke-miterlimit="10"></use></g><g><defs><path d="M 68.056 58.187 L 90.814 31.653 L 85.42 31.653 L 65.664 54.691 L 49.878 31.653 L 31.673 31.653 L 55.542 66.495 L 31.673 94.318 L 37.066 94.318 L 57.932 69.986 L 74.604 94.318 L 92.809 94.318 Z M 60.67 66.799 L 58.251 63.33 L 39.008 35.726 L 47.293 35.726 L 62.819 58.004 L 65.237 61.473 L 85.425 90.433 L 77.14 90.433 Z" id="a1680z"></path><filter id="a1682z" x="0.0%" y="-8.2%" width="99.8%" height="116.2%" filterUnits="objectBoundingBox"><feGaussianBlur stdDeviation="0" in="SourceAlpha" result="a1684z"></feGaussianBlur><feOffset dx="0" dy="-5.12" in="a1684z" result="a1685z"></feOffset><feComposite in="a1685z" in2="SourceAlpha" operator="arithmetic" k2="-1" k3="1" result="a1686z"></feComposite><feColorMatrix color-interpolation-filters="sRGB" values="0 0 0 0 0   0 0 0 0 0.00392156862745098   0 0 0 0 0.01568627450980392  0 0 0 1 0" type="matrix" in="a1686z" result="a1687z"></feColorMatrix></filter></defs><use xlink:href="#a1680z" fill="rgb(0, 1, 4)" clip-path="url(#a1681z)"></use><use fill="black" fill-opacity="1" filter="url(#a1682z)" xlink:href="#a1680z"></use></g></g></svg>